<svg width="24" height="24" viewBox="0 0 24 24" fill="none" xmlns="http://www.w3.org/2000/svg">
<path d="M19.3824 4.5H3.94709C2.86621 4.5 1.98999 5.37622 1.98999 6.4571C1.98999 7.10898 2.31456 7.71806 2.85566 8.0816L9.88015 12.801C10.5248 13.2341 10.8471 13.4507 11.1959 13.5348C11.504 13.6091 11.8254 13.6091 12.1336 13.5348C12.4823 13.4507 12.8046 13.2341 13.4493 12.801L20.4738 8.0816C21.0149 7.71807 21.3394 7.10898 21.3394 6.4571C21.3394 5.37622 20.4632 4.5 19.3824 4.5Z" stroke="white" stroke-width="1.8"/>
<path d="M20.8557 8V16.3C20.8557 17.4201 20.8557 17.9802 20.6377 18.408C20.446 18.7843 20.14 19.0903 19.7637 19.282C19.3359 19.5 18.7758 19.5 17.6557 19.5H5.67373C4.55362 19.5 3.99357 19.5 3.56574 19.282C3.18942 19.0903 2.88346 18.7843 2.69171 18.408C2.47372 17.9802 2.47372 17.4201 2.47372 16.3V8" stroke="white" stroke-width="1.8" stroke-linecap="round" stroke-linejoin="round"/>
</svg>
