<svg width="24" height="24" viewBox="0 0 24 24" fill="none" xmlns="http://www.w3.org/2000/svg">
<path d="M21.8893 7.88005C21.844 6.81738 21.6777 6.0868 21.4396 5.45374C21.1939 4.78176 20.8159 4.18014 20.3206 3.68002C19.8368 3.1721 19.2509 2.77743 18.6083 2.52745C17.9923 2.28127 17.2892 2.10943 16.2611 2.06257C15.2253 2.01175 14.8965 2 12.2694 2C9.64236 2 9.31354 2.01175 8.28159 2.05861C7.25348 2.10546 6.54666 2.27746 5.93435 2.52348C5.28408 2.77743 4.70203 3.16814 4.21817 3.68002C3.72678 4.18014 3.3451 4.78573 3.10309 5.44992C2.86493 6.0868 2.69867 6.81341 2.65334 7.87609C2.60417 8.9467 2.5928 9.28658 2.5928 12.002C2.5928 14.7173 2.60417 15.0572 2.6495 16.1239C2.69483 17.1865 2.86124 17.9171 3.0994 18.5502C3.3451 19.2221 3.72678 19.8238 4.21817 20.3239C4.70203 20.8318 5.28792 21.2265 5.93051 21.4765C6.54666 21.7226 7.24964 21.8945 8.2779 21.9413C9.3097 21.9883 9.63867 21.9999 12.2657 21.9999C14.8928 21.9999 15.2216 21.9883 16.2535 21.9413C17.2816 21.8945 17.9885 21.7226 18.6008 21.4765C19.9012 20.9568 20.9293 19.8941 21.432 18.5502C21.67 17.9133 21.8365 17.1865 21.8818 16.1239C21.9271 15.0572 21.9385 14.7173 21.9385 12.002C21.9385 9.28658 21.9346 8.9467 21.8893 7.88005ZM20.1469 16.0457C20.1052 17.0225 19.9465 17.5499 19.8142 17.9015C19.4891 18.7728 18.82 19.4643 17.9771 19.8004C17.6369 19.9372 17.1229 20.1012 16.1816 20.1441C15.161 20.1911 14.855 20.2027 12.2732 20.2027C9.69153 20.2027 9.38161 20.1911 8.36472 20.1441C7.41974 20.1012 6.90945 19.9372 6.56925 19.8004C6.14977 19.6402 5.76794 19.3862 5.45802 19.0541C5.13672 18.7298 4.89103 18.3391 4.73599 17.9055C4.60369 17.5539 4.44497 17.0225 4.40348 16.0497C4.358 14.9948 4.34678 14.6783 4.34678 12.0097C4.34678 9.34122 4.358 9.02087 4.40348 7.96995C4.44497 6.99319 4.60369 6.46575 4.73599 6.11412C4.89103 5.68038 5.13672 5.28586 5.46185 4.96536C5.77547 4.63327 6.15346 4.37931 6.57309 4.21921C6.91329 4.08247 7.42741 3.9184 8.36856 3.87537C9.38914 3.82851 9.69537 3.81676 12.2769 3.81676C14.8625 3.81676 15.1686 3.82851 16.1855 3.87537C17.1304 3.9184 17.6407 4.08247 17.9809 4.21921C18.4004 4.37931 18.7822 4.63327 19.0922 4.96536C19.4135 5.28967 19.6592 5.68038 19.8142 6.11412C19.9465 6.46575 20.1052 6.99701 20.1469 7.96995C20.1922 9.02484 20.2036 9.34122 20.2036 12.0097C20.2036 14.6783 20.1922 14.9908 20.1469 16.0457Z" fill="white"/>
<path d="M12.2694 6.86423C9.52527 6.86423 7.2988 9.1654 7.2988 12.002C7.2988 14.8385 9.52527 17.1397 12.2694 17.1397C15.0137 17.1397 17.24 14.8385 17.24 12.002C17.24 9.1654 15.0137 6.86423 12.2694 6.86423ZM12.2694 15.3347C10.4891 15.3347 9.0451 13.8422 9.0451 12.002C9.0451 10.1617 10.4891 8.66924 12.2694 8.66924C14.0498 8.66924 15.4937 10.1617 15.4937 12.002C15.4937 13.8422 14.0498 15.3347 12.2694 15.3347Z" fill="white"/>
<path d="M18.5971 6.6611C18.5971 7.32346 18.0775 7.86053 17.4366 7.86053C16.7957 7.86053 16.2762 7.32346 16.2762 6.6611C16.2762 5.99858 16.7957 5.46167 17.4366 5.46167C18.0775 5.46167 18.5971 5.99858 18.5971 6.6611Z" fill="white"/>
</svg>
