<svg width="14" height="16" viewBox="0 0 14 16" fill="none" xmlns="http://www.w3.org/2000/svg">
<path d="M0.333344 5.5H2.00001V0.5H3.66668L6.51668 5.5H10.3333V0.5H12V5.5H13.6667V7.16667H12V8.83333H13.6667V10.5H12V15.5H10.3333L7.47501 10.5H3.66668V15.5H2.00001V10.5H0.333344V8.83333H2.00001V7.16667H0.333344V5.5ZM3.66668 5.5H4.60834L3.66668 3.85833V5.5ZM3.66668 7.16667V8.83333H6.51668L5.56668 7.16667H3.66668ZM10.3333 12.1667V10.5H9.37501L10.3333 12.1667ZM7.46668 7.16667L8.42501 8.83333H10.3333V7.16667H7.46668Z" fill="#424141"/>
</svg>
